<svg width="121" height="17" viewBox="0 0 121 17" fill="none" xmlns="http://www.w3.org/2000/svg">
<path d="M20.6332 9.5335L20.6316 9.53191C20.6306 9.53102 20.63 9.52982 20.6292 9.52892L15.933 4.86238C15.895 4.82485 15.8649 4.78001 15.8443 4.73052C15.8238 4.68102 15.8132 4.62787 15.8132 4.57417C15.8132 3.96539 15.8132 1.92309 15.8132 1.92309C15.8122 1.82642 15.7734 1.73407 15.7053 1.66638C15.6372 1.59869 15.5453 1.56117 15.4499 1.5621H14.3601C14.2647 1.56119 14.1728 1.59871 14.1047 1.6664C14.0366 1.7341 13.9978 1.82643 13.9969 1.92309V2.69802C13.9969 2.71797 13.9911 2.73746 13.9802 2.75406C13.9693 2.77067 13.9538 2.78366 13.9356 2.79137C13.9174 2.79908 13.8975 2.80118 13.8781 2.79741C13.8588 2.79364 13.841 2.78415 13.827 2.77017L12.0637 1.01771C12.0627 1.01671 12.0621 1.01551 12.061 1.01451L11.3134 0.271694C11.2383 0.198116 11.138 0.156982 11.0335 0.156982C10.929 0.156982 10.8287 0.198116 10.7536 0.271694L6.18144 4.81458C6.14418 4.85152 6.11458 4.89563 6.09436 4.94432C6.07415 4.99301 6.06374 5.0453 6.06374 5.09811C6.06374 5.15093 6.07415 5.20322 6.09436 5.25191C6.11458 5.30059 6.14418 5.34471 6.18144 5.38165L6.90596 6.1015C6.97958 6.17367 7.07801 6.21401 7.18046 6.21401C7.2829 6.21401 7.38133 6.17367 7.45495 6.1015L9.78122 3.79014C9.80932 3.76221 9.84494 3.74329 9.8836 3.73579C9.92226 3.72828 9.96226 3.73253 9.99856 3.74797C10.0349 3.7634 10.0658 3.78934 10.0876 3.82255C10.1094 3.85576 10.1211 3.89477 10.1211 3.93465V8.36117C10.1211 8.41397 10.1107 8.46623 10.0905 8.51491C10.0703 8.5636 10.0408 8.6077 10.0036 8.64468L8.60248 10.0368C8.56511 10.0739 8.51484 10.0947 8.46249 10.0947C8.41014 10.0947 8.35988 10.0739 8.32251 10.0368L5.62536 7.35689C5.62437 7.35589 5.62378 7.35467 5.6227 7.35367L4.8963 6.63193C4.89531 6.63103 4.89413 6.63034 4.89315 6.62944L4.89187 6.62825C4.81825 6.55607 4.71982 6.5157 4.61738 6.5157C4.51493 6.5157 4.4165 6.55607 4.34289 6.62825C4.34141 6.62964 4.33962 6.63063 4.33815 6.63202L1.04935 9.89988C1.01209 9.93683 0.982481 9.98095 0.962268 10.0296C0.942055 10.0783 0.931641 10.1306 0.931641 10.1835C0.931641 10.2363 0.942055 10.2886 0.962268 10.3373C0.982481 10.386 1.01209 10.4301 1.04935 10.467L1.77388 11.1868C1.8475 11.259 1.94593 11.2993 2.04837 11.2993C2.15082 11.2993 2.24925 11.259 2.32287 11.1868L3.36942 10.1471C3.39752 10.1192 3.43313 10.1003 3.47178 10.0928C3.51042 10.0853 3.55039 10.0896 3.58667 10.105C3.62295 10.1204 3.65393 10.1464 3.67572 10.1796C3.69751 10.2128 3.70915 10.2517 3.70917 10.2916V15.9825C3.71011 16.0791 3.74892 16.1715 3.81705 16.2392C3.88518 16.3069 3.97705 16.3444 4.07247 16.3434C4.07247 16.3434 9.7958 16.3418 9.80171 16.3415C9.89779 16.3419 9.99014 16.3039 10.0588 16.2358L12.7294 13.5825L13.6572 12.6605C13.6853 12.6326 13.7209 12.6137 13.7596 12.6062C13.7983 12.5987 13.8383 12.6029 13.8746 12.6183C13.9109 12.6338 13.9419 12.6597 13.9636 12.693C13.9854 12.7262 13.9971 12.7651 13.9971 12.805V15.9825C13.998 16.0791 14.0368 16.1715 14.1049 16.2392C14.1731 16.3069 14.265 16.3444 14.3604 16.3434H15.4502C15.5456 16.3444 15.6375 16.3069 15.7056 16.2392C15.7737 16.1715 15.8125 16.0791 15.8135 15.9825V13.0134C15.8135 12.5662 16.0198 12.5144 16.2568 12.7661L17.1677 13.7351C17.2413 13.8072 17.3397 13.8475 17.4422 13.8475C17.5446 13.8475 17.643 13.8072 17.7167 13.7351L20.6294 10.8326C20.7174 10.7455 20.7869 10.6412 20.8337 10.526C20.9025 10.3593 20.9201 10.1755 20.8843 9.99846C20.8486 9.82145 20.7611 9.65944 20.6332 9.5335ZM17.5758 11.3099C17.5384 11.347 17.4881 11.3678 17.4358 11.3678C17.3835 11.3678 17.3332 11.347 17.2958 11.3099L15.1298 9.15786C15.0982 9.11936 15.0585 9.08841 15.0137 9.0672C14.9689 9.04598 14.92 9.03501 14.8706 9.03511C14.8211 9.0352 14.7723 9.04635 14.7275 9.06773C14.6828 9.08912 14.6433 9.12024 14.6118 9.15886L11.4446 12.3056L9.31222 14.4243C9.23896 14.4971 9.14041 14.5379 9.03778 14.5379H5.91724C5.81328 14.5379 5.71358 14.496 5.64007 14.4216C5.56657 14.3471 5.52527 14.2461 5.52527 14.1408V10.2923C5.52526 10.2524 5.53688 10.2134 5.55867 10.1802C5.58045 10.1469 5.61144 10.121 5.64775 10.1055C5.68405 10.0901 5.72406 10.0858 5.76273 10.0933C5.8014 10.1008 5.83701 10.1197 5.86512 10.1477L8.18992 12.4573C8.26357 12.5295 8.36199 12.5698 8.46442 12.5698C8.56685 12.5698 8.66527 12.5295 8.73891 12.4573L9.4919 11.7088C9.49899 11.7019 9.50412 11.6937 9.51053 11.6862L11.7753 9.43589C11.8564 9.34394 11.9123 9.23203 11.9373 9.11135V3.92647C11.9373 3.88658 11.9489 3.84757 11.9707 3.81434C11.9925 3.78111 12.0234 3.75516 12.0598 3.73971C12.0961 3.72426 12.136 3.72 12.1747 3.7275C12.2134 3.735 12.249 3.75392 12.2771 3.78186L18.5694 10.0339C18.5885 10.0528 18.6036 10.0753 18.6139 10.1001C18.6242 10.125 18.6295 10.1517 18.6295 10.1786C18.6295 10.2056 18.6242 10.2323 18.6139 10.2571C18.6036 10.282 18.5885 10.3045 18.5694 10.3233L17.5758 11.3099Z" fill="white"/>
<path d="M26.2278 1.62663C26.23 1.33427 26.3174 1.0491 26.4791 0.806914C26.6407 0.56473 26.8694 0.376338 27.1365 0.265423C27.4035 0.154508 27.6969 0.126013 27.9798 0.183507C28.2628 0.241002 28.5226 0.381926 28.7268 0.588578C28.9309 0.79523 29.0702 1.05838 29.1272 1.34499C29.1842 1.63161 29.1563 1.92891 29.047 2.1995C28.9378 2.4701 28.752 2.70194 28.5131 2.86592C28.2741 3.02989 27.9927 3.11869 27.7041 3.12114C27.5092 3.12562 27.3153 3.09005 27.1343 3.01654C26.9532 2.94304 26.7888 2.83312 26.6508 2.69346C26.5128 2.5538 26.4042 2.38727 26.3315 2.20391C26.2588 2.02056 26.2236 1.82418 26.2278 1.62663ZM27.7041 4.53649C27.8674 4.53434 28.0294 4.56491 28.181 4.62642C28.3325 4.68793 28.4705 4.77917 28.5872 4.8949C28.7038 5.01063 28.7967 5.14858 28.8605 5.3008C28.9243 5.45302 28.9578 5.61651 28.959 5.78189V15.0977C28.9524 15.4304 28.8173 15.7472 28.5826 15.98C28.348 16.2129 28.0326 16.3433 27.7041 16.3431C27.5404 16.3474 27.3774 16.3182 27.225 16.2574C27.0725 16.1967 26.9336 16.1056 26.8166 15.9894C26.6996 15.8733 26.6068 15.7345 26.5437 15.5813C26.4806 15.4281 26.4484 15.2637 26.4493 15.0977V5.78211C26.4505 5.61671 26.484 5.45318 26.5478 5.30095C26.6117 5.14871 26.7046 5.01077 26.8212 4.89502C26.9378 4.77928 27.0759 4.68803 27.2274 4.62652C27.379 4.56501 27.541 4.53446 27.7042 4.53661L27.7041 4.53649Z" fill="white"/>
<path d="M32.3547 5.77341C32.3559 5.60796 32.3893 5.44438 32.4531 5.29207C32.5169 5.13977 32.6097 5.00173 32.7263 4.88591C32.843 4.77008 32.981 4.67875 33.1326 4.61716C33.2842 4.55557 33.4463 4.52493 33.6096 4.52701C33.7734 4.52281 33.9364 4.55201 34.0889 4.61285C34.2414 4.67368 34.3804 4.76491 34.4974 4.88116C34.6144 4.9974 34.7073 5.13627 34.7703 5.28954C34.8334 5.44281 34.8655 5.60735 34.8646 5.77341V6.27241C35.6766 5.12571 36.9561 4.52742 38.5063 4.52742C39.7858 4.52742 40.9423 4.85147 41.7543 5.59937C42.591 6.34717 43.0585 7.56872 43.0585 9.28876V15.0971C43.052 15.43 42.9169 15.747 42.6823 15.98C42.4476 16.2131 42.1321 16.3436 41.8035 16.3436C41.0899 16.3436 40.524 15.7947 40.524 15.0971V9.9119C40.524 8.88975 40.3762 7.9674 39.8103 7.36911C39.4163 6.96991 38.8508 6.72092 38.0142 6.72092C36.8822 6.72092 35.9964 7.24447 35.4551 8.21672C35.0368 8.98947 34.8646 9.93675 34.8646 10.8592V15.0971C34.8581 15.43 34.723 15.747 34.4884 15.98C34.2537 16.2131 33.9382 16.3436 33.6096 16.3436C33.4463 16.3457 33.2841 16.315 33.1326 16.2534C32.981 16.1918 32.8429 16.1005 32.7263 15.9847C32.6097 15.8688 32.5168 15.7308 32.453 15.5785C32.3893 15.4261 32.3558 15.2626 32.3547 15.0971V5.77341Z" fill="white"/>
<path d="M50.1517 13.5511H50.2256L53.08 5.49912C53.2277 5.00012 53.6218 4.52686 54.3103 4.52686C55.0976 4.52686 55.5652 5.02585 55.5652 5.72345C55.5652 5.9976 55.4174 6.42145 55.2944 6.7954L52.0956 14.7477C51.7015 15.7698 51.1359 16.3432 50.0779 16.3432C48.9952 16.3432 48.4539 15.7698 48.1095 14.7477L44.9844 6.7954C44.8366 6.3463 44.7381 6.02255 44.7381 5.77325C44.7381 5.07526 45.2306 4.52686 46.116 4.52686C46.8788 4.52686 47.1741 5.1501 47.2971 5.5988L50.1517 13.5511Z" fill="white"/>
<path d="M67.2668 14.3986C67.2668 14.9475 66.8728 15.3211 66.1103 15.6701C65.0429 16.1225 63.8963 16.3514 62.7393 16.3432C60.8693 16.3432 59.3437 15.7199 58.3102 14.5981C57.3259 13.5511 56.7599 12.0554 56.7599 10.2854C56.7599 8.64012 57.3259 7.19421 58.3102 6.14721C59.2452 5.15011 60.6478 4.52686 62.4194 4.52686C64.1664 4.52686 65.4952 5.17496 66.381 6.07246C67.3899 7.14441 67.7345 8.46565 67.7345 9.71205C67.7345 10.5098 67.2668 11.133 66.4548 11.133H59.4175C59.4914 11.9557 59.7866 12.6786 60.2541 13.202C60.8693 13.925 61.7797 14.3238 62.9117 14.3238C63.6848 14.3225 64.4486 14.1523 65.1509 13.8248C65.6927 13.5753 65.9629 13.3512 66.332 13.3512C66.8731 13.3522 67.2668 13.8502 67.2668 14.3986ZM65.2738 9.3879C65.2492 8.5902 65.003 7.94211 64.5602 7.41856C64.0927 6.91956 63.3545 6.57107 62.4441 6.57107C61.4598 6.57107 60.6478 6.92036 60.1557 7.46846C59.7218 8.01687 59.4642 8.68676 59.4175 9.388L65.2738 9.3879Z" fill="white"/>
<path d="M76.7293 7.11945C75.942 7.11945 75.2284 6.62046 74.0718 6.62046C73.0138 6.62046 72.3248 6.9445 72.3248 7.6924C72.3248 8.3406 72.8173 8.6895 73.4813 8.9887C74.2441 9.31285 75.2038 9.58749 75.9665 9.96094C77.4183 10.6839 77.9842 11.5563 77.9842 12.8527C77.9842 14.9218 76.2864 16.3427 73.6043 16.3427C71.9803 16.3427 69.4213 15.9688 69.4213 14.4482C69.422 14.1839 69.526 13.9308 69.7104 13.744C69.8948 13.5572 70.1446 13.4518 70.4054 13.4511C71.3159 13.4511 71.7096 14.3484 73.432 14.3484C74.564 14.3484 75.3267 13.9492 75.3267 13.0771C75.3267 12.3292 74.7849 11.9802 74.0472 11.6312C73.3582 11.307 72.3493 11.0579 71.5127 10.659C70.307 10.0856 69.6672 9.16325 69.6672 7.7422C69.6672 5.74791 71.1928 4.52637 73.9242 4.52637C75.8927 4.52637 77.7135 4.92555 77.7135 6.0969C77.7157 6.22966 77.6919 6.36155 77.6435 6.48496C77.5952 6.60837 77.5231 6.72085 77.4316 6.81591C77.3401 6.91098 77.231 6.98676 77.1104 7.03885C76.9899 7.09095 76.8604 7.11834 76.7293 7.11945Z" fill="white"/>
<path d="M80.8541 4.76181V2.99346C80.8553 2.82808 80.8888 2.66458 80.9527 2.51237C81.0165 2.36015 81.1094 2.22222 81.226 2.10649C81.3426 1.99077 81.4807 1.89953 81.6322 1.83804C81.7837 1.77654 81.9457 1.74599 82.109 1.74815C82.7979 1.74815 83.3885 2.29606 83.3885 2.99346V4.76181H86.1936C86.4513 4.77152 86.6952 4.88205 86.8741 5.07015C87.0529 5.25825 87.1529 5.50927 87.1529 5.77048C87.1529 6.03168 87.0529 6.28273 86.8741 6.47083C86.6952 6.65893 86.4513 6.76945 86.1936 6.77917H83.3885V12.2083C83.3885 13.5283 83.8318 14.2008 84.9633 14.2008C86.0459 14.2008 86.3903 13.3789 87.1286 13.3789C87.7683 13.3789 88.0882 13.8522 88.0882 14.4001C88.0882 15.0227 87.473 15.5208 86.7348 15.8695C86.0284 16.1813 85.2662 16.3424 84.4957 16.3428C81.8382 16.3428 80.854 14.5994 80.854 12.4324V6.77875H79.9193C79.7915 6.77793 79.6652 6.75144 79.5476 6.70079C79.43 6.65013 79.3235 6.57633 79.2342 6.48367C79.1449 6.39101 79.0747 6.28133 79.0276 6.16098C78.9805 6.04063 78.9574 5.91201 78.9597 5.78256C78.9597 5.20971 79.378 4.76142 79.9193 4.76142L80.8541 4.76181Z" fill="white"/>
<path d="M91.0314 10.0114C92.4093 9.43796 94.2303 9.26351 95.7557 9.13886V8.83946C95.7557 8.04177 95.608 7.54316 95.2882 7.14436C94.8942 6.67061 94.3039 6.49615 93.6396 6.49615C92.9173 6.50358 92.2047 6.66497 91.5481 6.9698C90.9822 7.2193 90.6868 7.369 90.3423 7.369C90.2221 7.37138 90.1027 7.34914 89.9912 7.30363C89.8797 7.25812 89.7784 7.19028 89.6934 7.10415C89.6083 7.01803 89.5414 6.91539 89.4964 6.80242C89.4515 6.68944 89.4296 6.56844 89.4319 6.44666C89.4319 5.79846 90.0225 5.44946 90.7361 5.15036C91.7456 4.74065 92.8228 4.52913 93.9103 4.5271C95.0176 4.5271 96.3955 4.75145 97.3306 5.79845C97.9216 6.4715 98.2657 7.39386 98.2657 8.83976V15.0972C98.2553 15.3829 98.1519 15.657 97.9715 15.8769C97.7912 16.0967 97.544 16.25 97.2687 16.3126C96.9934 16.3753 96.7054 16.3439 96.4495 16.2233C96.1937 16.1028 95.9844 15.8998 95.8544 15.6461C94.8454 16.195 93.8612 16.3441 92.7293 16.3441C90.7361 16.3441 88.8661 15.1475 88.8661 12.9288C88.8661 11.4074 89.7764 10.5349 91.0314 10.0114ZM95.7557 13.8256V10.9088C93.0982 11.0585 91.2774 11.557 91.2774 12.8782C91.2774 13.9751 92.3601 14.4735 93.5166 14.4735C94.3062 14.4607 95.0786 14.2371 95.7558 13.8255L95.7557 13.8256Z" fill="white"/>
<path d="M101.862 4.76181V2.99346C101.863 2.82808 101.897 2.66458 101.961 2.51237C102.024 2.36015 102.117 2.22222 102.234 2.10649C102.35 1.99077 102.489 1.89953 102.64 1.83804C102.792 1.77654 102.954 1.74599 103.117 1.74815C103.806 1.74815 104.396 2.29606 104.396 2.99346V4.76181H107.202C107.459 4.77152 107.703 4.88205 107.882 5.07015C108.061 5.25825 108.161 5.50927 108.161 5.77048C108.161 6.03168 108.061 6.28273 107.882 6.47083C107.703 6.65893 107.459 6.76945 107.202 6.77917H104.396V12.2083C104.396 13.5283 104.84 14.2008 105.971 14.2008C107.054 14.2008 107.398 13.3789 108.136 13.3789C108.776 13.3789 109.096 13.8522 109.096 14.4001C109.096 15.0227 108.481 15.5208 107.743 15.8695C107.036 16.1813 106.274 16.3424 105.504 16.3428C102.846 16.3428 101.862 14.5994 101.862 12.4324V6.77875H100.927C100.799 6.77794 100.673 6.75146 100.555 6.70081C100.438 6.65016 100.331 6.57635 100.242 6.48369C100.152 6.39103 100.082 6.28136 100.035 6.161C99.988 6.04065 99.965 5.91202 99.9673 5.78256C99.9673 5.20971 100.385 4.76142 100.927 4.76142L101.862 4.76181Z" fill="white"/>
<path d="M120.464 14.3986C120.464 14.9475 120.07 15.3211 119.308 15.6701C118.24 16.1225 117.094 16.3514 115.937 16.3432C114.067 16.3432 112.541 15.7199 111.508 14.5981C110.523 13.5511 109.957 12.0554 109.957 10.2854C109.957 8.64012 110.523 7.19421 111.508 6.14721C112.443 5.15011 113.845 4.52686 115.617 4.52686C117.364 4.52686 118.693 5.17496 119.578 6.07246C120.587 7.14441 120.932 8.46566 120.932 9.71205C120.932 10.5098 120.464 11.133 119.652 11.133H112.615C112.689 11.9557 112.984 12.6786 113.452 13.202C114.067 13.925 114.977 14.3238 116.109 14.3238C116.882 14.3225 117.646 14.1523 118.348 13.8248C118.89 13.5753 119.16 13.3512 119.529 13.3512C120.071 13.3522 120.464 13.8502 120.464 14.3986ZM118.471 9.3879C118.447 8.5902 118.2 7.94211 117.758 7.41856C117.29 6.91956 116.552 6.57107 115.641 6.57107C114.657 6.57107 113.845 6.92036 113.353 7.46846C112.919 8.01685 112.662 8.68676 112.615 9.388L118.471 9.3879Z" fill="white"/>
</svg>
